/* XPM */
static char * interface_00_xpm[] = {
"20 20 11 1",
" 	c None",
".	c #FE0101",
"+	c #FE0F0E",
"@	c #FE1B1B",
"#	c #FE0807",
"$	c #FE1313",
"%	c #FBAB00",
"&	c #FCB412",
"*	c #FE1E00",
"=	c #FCB10D",
"-	c #000000",
"                    ",
"                    ",
"            ......  ",
"           ..+@#..  ",
"          ..    #.  ",
"         ..     $.  ",
"%%      ..      $.  ",
"%%%    ..       $.  ",
"  %   ..        ..  ",
"  %&  ...+..........",
"  %%% ...+......##..",
"  %%%.*..#..........",
"  %%%...............",
"  %%% ..............",
"  %=  ..............",
"  %    ----    ---- ",
"%%%    ----    ---- ",
"%%      --      --  ",
"                    ",
"                    "};
