/* XPM */
static char * interface_09_xpm[] = {
"20 20 7 1",
" 	c None",
".	c #000000",
"+	c #04FEFE",
"@	c #0BFFFF",
"#	c #011C1C",
"$	c #000101",
"%	c #423F3F",
"                    ",
"                    ",
"                    ",
"   ..............   ",
"   .++++++++++++.   ",
"   .+++++++++@@+.   ",
"   .++++.#..+@@+.   ",
"   .++++.....+++.   ",
"   .++++..++..++.   ",
"   .++++..++..++.   ",
"   .++++.....+@+.   ",
"   .++++..$.++++.   ",
"   .++++..++++++.   ",
"   .++++..++++@+.   ",
"   .+++++++++@@+.   ",
"   .++++++++++++.   ",
"%%%%%%%%%%%%%%%%%%%%",
"%%%%%%%%%%%%%%%%%%%%",
"                    ",
"                    "};
