/* XPM */
static char * interface_20_xpm[] = {
"20 20 46 1",
" 	c None",
".	c #1A931A",
"+	c #2B9B2B",
"@	c #3BA33B",
"#	c #319D31",
"$	c #33A233",
"%	c #0E8D0E",
"&	c #169116",
"*	c #359435",
"=	c #016501",
"-	c #006C00",
";	c #0A7C0A",
">	c #017B01",
",	c #007400",
"'	c #229822",
")	c #2C912C",
"!	c #009300",
"~	c #0F9B0F",
"{	c #37AA37",
"]	c #1D7D1D",
"^	c #2D832D",
"/	c #0DB30D",
"(	c #02BC02",
"_	c #11B411",
":	c #428A42",
"<	c #338333",
"[	c #059B05",
"}	c #00CA00",
"|	c #00DD00",
"1	c #00D500",
"2	c #3B893B",
"3	c #00C300",
"4	c #068106",
"5	c #01B201",
"6	c #09C809",
"7	c #09C509",
"8	c #00A800",
"9	c #008E00",
"0	c #015401",
"a	c #015C01",
"b	c #088208",
"c	c #3A773A",
"d	c #2A792A",
"e	c #337A33",
"f	c #004900",
"g	c #277827",
"                    ",
"                    ",
"                    ",
"                    ",
"       .+@#$@+.%&&&.",
"      *=-;>,,;.##'.&",
"      *--;;,-)      ",
"      $!!~~!!{      ",
"   ]^#/((((((_@:<   ",
"  #>>[}||1|||}[>,#  ",
"2+_3(}1|||||||((3/)2",
"4!567(55555855(665!9",
"}5!,>>>,,,>,,,>>,95}",
"38>0a==========a0>83",
",,;bbbbbbbbbbbbbb;,-",
"cd;>>>>>>>>>>>>>>;dc",
"  ef0aaaaa0aaaa0fe  ",
"   ge::::::2:::ed   ",
"                    ",
"                    "};
