/* XPM */
static char * interface_18_xpm[] = {
"20 20 4 1",
" 	c None",
".	c #FF0000",
"+	c #FE0101",
"@	c #FF0B0B",
"        ....        ",
"        ....        ",
"      ........      ",
"      ........      ",
"  ..    ....    ..  ",
"  ..    ....    ..  ",
"  ................  ",
"  ................  ",
"  ..    ..+.    ..  ",
"  ..    ..+.    ..  ",
"        ..+.        ",
"        ..+.        ",
"        ..+.        ",
"       ...+..       ",
"      ....+...      ",
"     .....+....     ",
"    ......+.....    ",
"    ...@..+.....    ",
"    ...@..+.....    ",
"    ...+..+.....    "};
