/* XPM */
static char * interface_11_xpm[] = {
"20 20 9 1",
" 	c None",
".	c #000000",
"+	c #515151",
"@	c #000CFF",
"#	c #875100",
"$	c #A56000",
"%	c #B76400",
"&	c #CC6900",
"*	c #ED7200",
"                    ",
"                    ",
"                    ",
"                    ",
"      ........      ",
"   ...++++++++...   ",
"  .+++@@@@@@@@+++.  ",
"  .@@@@@@@@@@@@@@.  ",
"  .+++@@@@@@@@+++.  ",
"  ....++++++++....  ",
"  .#$%........%$#.  ",
"  .#$%%&****&%%$#.  ",
"  .#$%%&****&%%$#.  ",
"  .#$%%&****&%%$#.  ",
"  .#$%%&****&%%$#.  ",
"  .#$%%&****&%%$#.  ",
"  .#$%%&****&%%$#.  ",
"   ...%&****&%...   ",
"      ........      ",
"                    "};
