/* XPM */
static char * interface_05_xpm[] = {
"20 20 4 1",
" 	c None",
".	c #000000",
"+	c #FDFD07",
"@	c #3C3C42",
"                    ",
"                    ",
"    ..  ..  ..      ",
"    ..  ..  ..      ",
"    ..  ..  ..      ",
"    ..  ..  ..      ",
"    ..  ..  ..      ",
"    ..  ..  ..      ",
"   ..............   ",
"   .++++++++++++.   ",
"   .++++++++++++.   ",
"   .++++++++++++.   ",
"   .+++..+++..++.   ",
"   .+++..+++..++.   ",
"   .+++..+++++++.   ",
"   .+++..+++++++.   ",
"@@@@@@@@@@@@@@@@@@@@",
"@@@@@@@@@@@@@@@@@@@@",
"                    ",
"                    "};
