/* XPM */
static char * interface_08_xpm[] = {
"20 20 5 1",
" 	c None",
".	c #3A3A3A",
"+	c #666666",
"@	c #898989",
"#	c #9B9B9B",
"                    ",
"                    ",
"                    ",
"                    ",
"                    ",
"                    ",
"                    ",
"                    ",
"  ...          ...  ",
"..+++...........+...",
"+++@++++++++++++@+++",
"@@+#+@@@@@@@@@@+#+@@",
"@@+#+@@@@@@@@@@+#+@@",
"@@+#+@@@@@@@@@@+#+@@",
"@@+#+@@@@@@@@@@+#+@@",
"+++@++++++++++++@+++",
"...+............+...",
"  ...          ...  ",
"                    ",
"                    "};
