/* XPM */
static char * interface_04_xpm[] = {
"20 20 6 1",
" 	c None",
".	c #000000",
"+	c #010101",
"@	c #0202FE",
"#	c #000015",
"$	c #3F3F21",
"   ......++......   ",
"   .@@@@@@@@@@@@.   ",
"   .@@@@@@@@@@@@.   ",
"   .@@@@@@@@@@@@.   ",
"   .@@..@@@@..@@.   ",
"   .@@..@@@@..@@.   ",
"   .@@@@@@@@@@@@.   ",
"   .@@@@@@@@@@@@.   ",
"   .@@..@@@@..@@.   ",
"   .@@..@@@@..@@.   ",
"   .@@@@@@@@@@@@.   ",
"   .@@@@@@@@@@@@.   ",
"   .@@@.#@@@..@@.   ",
"   .@@@..@@@..@@.   ",
"   .@@@..@@@@@@@.   ",
"   .@@@..@@@@@@@.   ",
"$$$$$$$$$$$$$$$$$$$$",
"$$$$$$$$$$$$$$$$$$$$",
"                    ",
"                    "};
