/* XPM */
static char * interface_02_xpm[] = {
"20 20 4 1",
" 	c None",
".	c #AA711B",
"+	c #000000",
"@	c #0D0404",
"                    ",
"                    ",
"          ..        ",
"          ..        ",
"       +++@+++      ",
"    +++++++++++++   ",
"+++++++   ..  ++++++",
"++++      ..     +++",
"          ..        ",
"          ..        ",
"          ..        ",
"          ..        ",
"          ..        ",
"          ..        ",
"          ..        ",
"          ..        ",
"          ..        ",
"          ..        ",
"                    ",
"                    "};
