/* XPM */
static char * interface_03_xpm[] = {
"20 20 12 1",
" 	c None",
".	c #000100",
"+	c #0A100A",
"@	c #141414",
"#	c #010B01",
"$	c #0C050C",
"%	c #000000",
"&	c #079D07",
"*	c #241924",
"=	c #342434",
"-	c #3A273A",
";	c #424242",
"                    ",
"                    ",
"         ..         ",
"        ....        ",
"       ......       ",
"      ...+@...      ",
"     @...#.....     ",
"    @..$....$...    ",
"   .%............   ",
"    %&&&&&&&&&&.    ",
"    %&&&&&&&&&&*    ",
"    %&&&&&&&&&&=    ",
"    %&&&&##&&&&=    ",
"    %&&&&..&&&&=    ",
"    %&&&&$.&&&&-    ",
"    %&&&&..&&&&*    ",
";;;;;;;;;;;;;;;;;;;;",
";;;;;;;;;;;;;;;;;;;;",
"                    ",
"                    "};
