/* XPM */
static char * interface_06_xpm[] = {
"20 20 9 1",
" 	c None",
".	c #090909",
"+	c #232923",
"@	c #0D6D0D",
"#	c #251C25",
"$	c #0C270C",
"%	c #000000",
"&	c #100010",
"*	c #111111",
"                    ",
"      ....  ..      ",
"     +@@@@..@@.     ",
"    #@@@@@@@@@..    ",
"   $@@@@@@@@@@@@.   ",
"   %@@@@@@@@@@@@.   ",
"   %@@@@@@@@@@@@.   ",
"   %@@@@@@@@@@@@.   ",
"   %@@@@@@@@@@@@.   ",
"   %@@...@@&..@@.   ",
"    ..   ..   ..    ",
"         ..         ",
"         ..         ",
"         ..         ",
"         ..         ",
"         ..         ",
"         ..         ",
"         ..         ",
"       *%..%%       ",
"      .%%..%%%      "};
