/* XPM */
static char * interface_19_xpm[] = {
"20 20 77 1",
" 	c None",
".	c #6965FF",
"+	c #2D2AFF",
"@	c #3532FF",
"#	c #4844FE",
"$	c #9794FF",
"%	c #2625FF",
"&	c #0001FE",
"*	c #000AFE",
"=	c #0E08FF",
"-	c #635DFF",
";	c #140FFF",
">	c #0012FE",
",	c #001AFE",
"'	c #1414FF",
")	c #958FFF",
"!	c #241CFF",
"~	c #0445FF",
"{	c #0E6FFE",
"]	c #0957FE",
"^	c #0A43FD",
"/	c #0B4DFD",
"(	c #0023FE",
"_	c #6B6BFF",
":	c #00A2FF",
"<	c #03B7FE",
"[	c #027BFE",
"}	c #0153FE",
"|	c #015CFE",
"1	c #002BFE",
"2	c #0E12FF",
"3	c #01BAFF",
"4	c #0082FF",
"5	c #0064FE",
"6	c #006CFE",
"7	c #023BFE",
"8	c #0133FE",
"9	c #423CFC",
"0	c #0000F7",
"a	c #0070FF",
"b	c #3B2FF1",
"c	c #073FF7",
"d	c #C94723",
"e	c #8F2E62",
"f	c #2C0ACE",
"g	c #0C42F2",
"h	c #0744F7",
"i	c #093CF5",
"j	c #0735F7",
"k	c #940100",
"l	c #780023",
"m	c #470092",
"n	c #150AF2",
"o	c #7E0000",
"p	c #AB051A",
"q	c #82096F",
"r	c #230ADB",
"s	c #C23025",
"t	c #E20F00",
"u	c #BF0023",
"v	c #59009D",
"w	c #2900D7",
"x	c #3900C4",
"y	c #3400CA",
"z	c #2101E1",
"A	c #D8332E",
"B	c #CC0000",
"C	c #C8001E",
"D	c #C70643",
"E	c #C7013C",
"F	c #C70036",
"G	c #D6191F",
"H	c #F30000",
"I	c #FE0101",
"J	c #FB2727",
"K	c #F50711",
"L	c #F5000A",
"                    ",
"                    ",
"      .+@##@+.      ",
"     $%&&*=&&%$     ",
"    -;&*>>>>,>'-    ",
"   )!&~{]~^//(&!$   ",
"  _=&~:<[}||~1,>2_  ",
"  #&>{<3456578^(&9  ",
"  9&>][46565787,&9  ",
"  #0>^}5555}787,0#  ",
"  90>~|5a5~8187,09  ",
"  b&,/|55}718c^,&b  ",
"def&1gghhhijjig1&fed",
"klmn,1(((((1(11,nmlk",
"okpqr**0&***=**rqpko",
" stuvrwxyyyyxwzvuts ",
"  ABCDEFFFFFFEDCBA  ",
"   GHIIIIIIIIIIHG   ",
"    JIIIIIIIIIIJ    ",
"      HKLLLLKH      "};
