/* XPM */
static char * interface_01_xpm[] = {
"20 20 6 1",
" 	c None",
".	c #000000",
"+	c #525252",
"@	c #636363",
"#	c #868686",
"$	c #FFFFFF",
"  .+@##########@+.  ",
"  .+@##########@+.  ",
"  .+@##########@+.  ",
"  .+@####$$####@+.  ",
"  .+@####$$####@+.  ",
"  .+@####$$####@+.  ",
"  .+@####$$####@+.  ",
"  .+@##########@+.  ",
"  .+@##########@+.  ",
"  .+@##########@+.  ",
"  .+@##########@+.  ",
"  .+@##########@+.  ",
"  .+@##########@+.  ",
"  .+@####$$####@+.  ",
"  .+@####$$####@+.  ",
"  .+@####$$####@+.  ",
"  .+@####$$####@+.  ",
"  .+@##########@+.  ",
"  .+@##########@+.  ",
"  .+@##########@+.  "};
