/* XPM */
static char * interface_07_xpm[] = {
"20 20 30 1",
" 	c None",
".	c #3838EA",
"+	c #3232E3",
"@	c #2424E1",
"#	c #5E5EE9",
"$	c #2A2AE3",
"%	c #3B3BE6",
"&	c #1E1ED1",
"*	c #0000D4",
"=	c #4343EA",
"-	c #4E4EEC",
";	c #00009C",
">	c #2F2FBE",
",	c #0303A1",
"'	c #3838AF",
")	c #01018A",
"!	c #3636AF",
"~	c #2D2DAB",
"{	c #1010A8",
"]	c #000092",
"^	c #1D1DAA",
"/	c #0C0CA1",
"(	c #3333A4",
"_	c #2E2E96",
":	c #000081",
"<	c #01017D",
"[	c #0B0B85",
"}	c #3C3C9E",
"|	c #08087E",
"1	c #000074",
"                    ",
"                    ",
"                    ",
"                    ",
"                    ",
"                    ",
"                    ",
"                    ",
"                    ",
"                    ",
"     .+@@#      $++%",
"    &*+=$#    &*$-%+",
"   ;;>       ,,>    ",
"  '))!      ~))!    ",
"  {];,^    {;;,,^   ",
" ';//])(  ()]//])_  ",
"::))::<[__[<:)):<[_}",
"||<<<<||11||<<<<||11",
"<<<<<<<<1<<<<<<<<<<1",
"::<::<:<[[::<<:<<:[["};
