/* XPM */
static char * interface_10_xpm[] = {
"20 20 4 1",
" 	c None",
".	c #000001",
"+	c #000000",
"@	c #FFFF00",
"       ......       ",
"     ..++++++..     ",
"   ..++++++++++..   ",
"  ..@++++++++++@..  ",
"  .@@@++++++++@@@.  ",
" .@@@@@++++++@@@@@. ",
" .@@@@@@++++@@@@@@. ",
".@@@@@@@@++@@@@@@@@.",
".@@@@@@@@@@@@@@@@@@.",
".@@@@@@@@@@@@@@@@@@.",
"........+@@+........",
".++++++++@@++++++++.",
".+++++++@@@@+++++++.",
" .+++++@@@@@@+++++. ",
" .++++@@@@@@@@++++. ",
"  .++@@@@@@@@@@++.  ",
"  ..@@@@@@@@@@@@..  ",
"   ..@@@@@@@@@@..   ",
"     ..@@@@@@..     ",
"       ......       "};
