/* XPM */
static char * monsters_16x16_color_xpm[] = {
"128 32 9 1",
" 	c None",
".	c #009900",
"+	c #00CC00",
"@	c #0033FF",
"#	c #00FF00",
"$	c #FF9900",
"%	c #990000",
"&	c #FF0000",
"*	c #FF6666",
" . .   ++   . .        . .                                               ++                                           . .       ",
" ...  @##@  ...        .. .@++       +..      ..    +++                 .  +                    ..      ..+       ++@. ..       ",
"  .  .+##+.  .      .  + ..+#++     +..      ..    ++  +  ++           ..           ++           ..      ..+     ++#+.. +  .    ",
"   ++.+##+.++      . . +..+$##+      +..    + ..   ...  +++..          ..          ..+++  ...+  .. +    ..+      +##$+..+ . .   ",
"    +.+$$+.+      +..  ..+##$+@  +   ++    ++      ......++. .    +   .##.   +    . .++......++    ++    ++      @+$##+..  ..+  ",
"     .+##+.       +++ ..+$##+.. +    .........     ..##+..  .    +.++.+##+.++.+    .  ..+##.. +   .........      ..+##$+.. +++  ",
"     .+$$+.        ++..+##$+.. .+   .+++++++++@     .###+..      ...+.+##+.+...      ..+###.  +  @+++++++++.    . ..+$##+..++   ",
"     .+##+.        +..+$##+.. .  ...###$#$#$###+    .+##$+..++.. . . .+$$+. . . ..++..+$##+. +  +###$#$#$###..   . ..+##$+..+   ",
" . . .+$$+. . .   + .+##$+..++..  ..###$#$#$###+   +..+$##+.. .      .+##+.      . ..+##$+..+   +###$#$#$###... ..++..+$##+.    ",
" ...+.+##+.+...  +  .###+..         .+++++++++@    ++..+##$+.. .     .+$$+.     . ..+$##+..++    @+++++++++.   +     ..+###.    ",
" +.++.+##+.++.+  + ..##+..  .        .........    +++ ..+$##+..      .+##+.      ..+##$+.. +++    .........    +   .  ..+##..   ",
"  +   .##.   +   ++......++. .       ++    ++     +..  ..+##$+@     +.+$$+.+     @+$##+..  ..+     ++    ++   +   . .++......   ",
"       ..         +...  +++..        +..    + ..   . . +..+$##+    ++.+##+.++    +##$+..+ . .   .. +    ..+        ..+++  ...   ",
"       ..                 ++        +..      ..     .  + ..+#++   .  .+##+.  .   ++#+.. +  .     ..      ..+        ++  +  ++   ",
"    +  .                             +..      ..       .. .@++   ...  @##@  ...   ++@. ..       ..      ..+              +++    ",
"     ++                                                . .       . .   ++   . .       . .                                       ",
" % %   %%   % %        % %                                               &&                                           % %       ",
" %%%  @**@  %%%        %% %@&&       &%%      %%    &&&                 %  &                    %%      %%&       &&@% %%       ",
"  %  %&**&%  %      %  & %%&*&&     &%%      %%    &&  &  &&           %%           &&           %%      %%&     &&*&%% &  %    ",
"   &&%&**&%&&      % % &%%&***&      &%%    & %%   %%%  &&&%%          %%          %%&&&  %%%&  %% &    %%&      &***&%%& % %   ",
"    &%&**&%&      &%%  %%&***&@  &   &&    &&      %%%%%%&&% %    &   %**%   &    % %&&%%%%%%&&    &&    &&      @&***&%%  %%&  ",
"     %&**&%       &&& %%&***&%% &    %%%%%%%%%     %%**&%%  %    &%&&%&**&%&&%&    %  %%&**%% &   %%%%%%%%%      %%&***&%% &&&  ",
"     %&**&%        &&%%&***&%% %&   %&&&&&&&&&@     %***&%%      %%%&%&**&%&%%%      %%&***%  &  @&&&&&&&&&%    % %%&***&%%&&   ",
"     %&**&%        &%%&***&%% %  %%%***********&    %&***&%%&&%% % % %&**&% % % %%&&%%&***&% &  &***********%%   % %%&***&%%&   ",
" % % %&**&% % %   & %&***&%%&&%%  %%***********&   &%%&***&%% %      %&**&%      % %%&***&%%&   &***********%%% %%&&%%&***&%    ",
" %%%&%&**&%&%%%  &  %***&%%         %&&&&&&&&&@    &&%%&***&%% %     %&**&%     % %%&***&%%&&    @&&&&&&&&&%   &     %%&***%    ",
" &%&&%&**&%&&%&  & %%**&%%  %        %%%%%%%%%    &&& %%&***&%%      %&**&%      %%&***&%% &&&    %%%%%%%%%    &   %  %%&**%%   ",
"  &   %**%   &   &&%%%%%%&&% %       &&    &&     &%%  %%&***&@     &%&**&%&     @&***&%%  %%&     &&    &&   &   % %&&%%%%%%   ",
"       %%         &%%%  &&&%%        &%%    & %%   % % &%%&***&    &&%&**&%&&    &***&%%& % %   %% &    %%&        %%&&&  %%%   ",
"       %%                 &&        &%%      %%     %  & %%&*&&   %  %&**&%  %   &&*&%% &  %     %%      %%&        &&  &  &&   ",
"    &  %                             &%%      %%       %% %@&&   %%%  @**@  %%%   &&@% %%       %%      %%&              &&&    ",
"     &&                                                % %       % %   &&   % %       % %                                       "};
