/* XPM */
static char * units_16x16_color_xpm[] = {
"48 16 11 1",
" 	c None",
".	c #000000",
"+	c #006600",
"@	c #666666",
"#	c #0000FF",
"$	c #009900",
"%	c #00CC00",
"&	c #FF0000",
"*	c #0066FF",
"=	c #FFFFFF",
"-	c #00FF00",
"                                                ",
"                                                ",
"                                                ",
"                   ..      ..     + + + + + + + ",
"  .. ..     ..   @@@@@@##@@@@@@  $%%%%%%%%%%%%$ ",
" &&&&&&&&&&&&*&  @=*@==##=@*==@  $%%%%%%%%%%%%$ ",
" &&&&&&@&&&#&*&  @=*@==##=@*==@  %-----%++%%%%% ",
" &&.....@&&&&*&  @=*@==##=@*==@  %-----+++++++++",
" &&.....@&&&&*&  @=*@==&&=@*==@  %-----+++++++++",
" &&&&&&@&&&#&*&  @=*@==&&=@*==@  %-----%++%%%%% ",
" &&&&&&&&&&&&*&  @=*@==&&=@*==@  $%%%%%%%%%%%%$ ",
"  .. ..     ..   @@@@@@&&@@@@@@  $%%%%%%%%%%%%$ ",
"                   ..      ..     + + + + + + + ",
"                                                ",
"                                                ",
"                                                "};
